#!OML:ASF H:\Terrain\Patient Classification 1\Animal2\Wednesday\Animal2.ASF
:FULLY-SPECIFIED
:DEGREES
649
root 17.0897 16.2334 -2.50389 -2.81414 -18.1232 -12.2007
lowerback 2.97334 3.02722 2.15262
upperback -3.94581 4.27786 2.14668
thorax -5.76864 2.0746 0.687461
lowerneck -2.85687 -6.46481 12.6064
upperneck -0.719438 -8.9965 -6.03711
head -0.655915 -4.55776 -4.19897
rclavicle -7.55382e-014 -3.73715e-014
rhumerus -41.4272 -1.56469 -75.128
rradius 122.035
rwrist -15.8386
rhand -8.45723 8.65833
rfingers 7.12502
rthumb 17.4688 -20.5768
lclavicle -7.55382e-014 -3.73715e-014
lhumerus -67.1393 6.40119 57.5798
lradius 120.653
lwrist 4.79113
lhand 7.50846 39.3831
lfingers 7.12502
lthumb 32.7595 66.4337
rfemur -9.93627 17.7616 9.16395
rtibia 26.1889
rfoot -21.6172 11.1585
rtoes -23.6774
lfemur -2.11491 3.5932 1.53333
ltibia 53.0423
lfoot -38.3891 11.0622
ltoes -26.7085
650
root 17.1488 16.2306 -2.51761 -2.65627 -18.6652 -12.3701
lowerback 2.88538 2.9186 2.41199
upperback -3.87086 4.1376 2.09817
thorax -5.61724 1.99469 0.511454
lowerneck -3.36971 -6.28951 12.64
upperneck -0.681675 -8.82616 -5.83228
head -0.524547 -4.47667 -4.1608
rclavicle 4.65156e-014 4.13472e-014
rhumerus -41.7698 -1.61681 -74.691
rradius 122.154
rwrist -16.1261
rhand -6.62273 8.54524
rfingers 7.12502
rthumb 19.2336 -20.5237
lclavicle 4.65156e-014 4.13472e-014
lhumerus -66.3634 6.74107 57.7118
lradius 120.745
lwrist 3.81851
lhand 6.82343 39.0208
lfingers 7.12502
lthumb 32.1076 66.2051
rfemur -10.226 17.6051 9.16647
rtibia 25.9933
rfoot -21.6432 10.5383
rtoes -27.087
lfemur -2.14673 3.99921 1.51939
ltibia 53.1673
lfoot -38.5062 10.7501
ltoes -24.7819
651
root 17.206 16.2315 -2.53315 -2.6388 -19.3271 -12.2778
lowerback 2.93181 2.84275 2.32243
upperback -3.87855 4.02939 2.02772
thorax -5.65291 1.94249 0.493594
lowerneck -3.09456 -6.28133 12.6028
upperneck -0.593039 -8.77834 -5.72932
head -0.532374 -4.44666 -4.10851
rclavicle 2.40529e-014 -9.54166e-015
rhumerus -42.2095 -1.67223 -74.3614
rradius 122.094
rwrist -16.2317
rhand -5.03139 8.65195
rfingers 7.12502
rthumb 20.7633 -20.2572
lclavicle 2.40529e-014 -9.54166e-015
lhumerus -65.7748 6.98908 57.9487
lradius 120.831
lwrist 2.49783
lhand 6.46708 38.5898
lfingers 7.12502
lthumb 31.7683 65.8419
rfemur -10.528 17.5432 8.8496
rtibia 25.8208
rfoot -20.7932 11.2943
rtoes -26.0781
lfemur -2.03096 4.57201 1.2568
ltibia 53.1941
lfoot -38.4262 11.1542
ltoes -25.6383
652
root 17.2644 16.238 -2.54895 -2.75901 -19.9574 -12.2481
lowerback 3.15479 2.72454 2.22596
upperback -3.82446 3.87465 2.06484
thorax -5.73315 1.86967 0.587113
lowerneck -2.89436 -6.2464 12.4997
upperneck -0.622025 -8.70426 -5.74623
head -0.565939 -4.40786 -4.08755
rclavicle 1.78906e-014 2.94201e-014
rhumerus -42.3855 -1.93567 -74.2215
rradius 121.777
rwrist -16.0434
rhand -3.01358 8.77449
rfingers 7.12502
rthumb 22.7009 -19.9102
lclavicle 1.78906e-014 2.94201e-014
lhumerus -65.0918 7.32345 58.3333
lradius 120.94
lwrist 1.07199
lhand 7.78397 38.3586
lfingers 7.12502
lthumb 33.0216 65.3542
rfemur -10.7079 17.6699 8.65548
rtibia 25.7773
rfoot -19.3865 12.4304
rtoes -22.3048
lfemur -1.7494 5.01211 1.05694
ltibia 53.178
lfoot -38.3089 11.7307
ltoes -27.0123
653
root 17.3299 16.2487 -2.53847 -2.99548 -20.8715 -12.0942
lowerback 3.04807 2.69592 2.22386
upperback -3.57625 3.82102 2.01786
thorax -5.40742 1.84662 0.555425
lowerneck -2.99904 -6.18768 12.4906
upperneck -0.523716 -8.63801 -5.74316
head -0.507602 -4.37348 -4.09298
rclavicle -3.18055e-015 -1.03368e-014
rhumerus -42.3827 -2.5554 -74.0613
rradius 121.454
rwrist -15.5919
rhand -0.824638 8.8592
rfingers 7.12502
rthumb 24.8003 -19.5527
lclavicle -3.18055e-015 -1.03368e-014
lhumerus -64.102 7.56677 58.885
lradius 121.043
lwrist 0.0301479
lhand 8.48553 37.8841
lfingers 7.12502
lthumb 33.6885 64.7365
rfemur -10.91 17.9202 8.32965
rtibia 25.8124
rfoot -18.644 13.223
rtoes -20.182
lfemur -1.09253 5.4943 0.599646
ltibia 53.0884
lfoot -38.5218 11.8559
ltoes -27.1737
654
root 17.3869 16.2564 -2.56509 -2.72222 -21.1893 -12.0132
lowerback 2.84936 2.42988 2.06083
upperback -3.64589 3.44741 1.95605
thorax -5.373 1.66669 0.617637
lowerneck -2.85322 -6.12705 12.5841
upperneck -0.309671 -8.54019 -5.80587
head -0.461374 -4.31814 -4.13399
rclavicle 3.00165e-014 -7.95139e-015
rhumerus -42.8049 -2.96613 -73.7813
rradius 121.197
rwrist -15.129
rhand 0.70069 9.16754
rfingers 7.12502
rthumb 26.2613 -19.0351
lclavicle 3.00165e-014 -7.95139e-015
lhumerus -63.1546 7.67674 59.5923
lradius 121.101
lwrist -0.834764
lhand 7.49535 37.8941
lfingers 7.12502
lthumb 32.7471 64.9473
rfemur -11.5681 17.8613 8.00433
rtibia 25.828
rfoot -18.4525 13.0196
rtoes -21.0852
lfemur -1.43575 5.89776 0.344313
ltibia 53.0819
lfoot -38.4656 11.7292
ltoes -27.4787
655
root 17.4412 16.2647 -2.59411 -2.4483 -21.567 -11.9396
lowerback 2.6896 2.12542 1.87314
upperback -3.71092 3.02527 1.94391
thorax -5.35877 1.46449 0.745626
lowerneck -2.76023 -6.00152 12.6996
upperneck -0.129588 -8.36354 -6.04496
head -0.41856 -4.22585 -4.24548
rclavicle -1.76918e-014 -7.95139e-016
rhumerus -43.2661 -2.95517 -73.5838
rradius 120.907
rwrist -15.0204
rhand 1.45449 9.43494
rfingers 7.12502
rthumb 26.9828 -18.6581
lclavicle -1.76918e-014 -7.95139e-016
lhumerus -62.1924 7.97228 60.3388
lradius 121.222
lwrist -1.89021
lhand 7.08925 38.4928
lfingers 7.12502
lthumb 32.3606 65.6258
rfemur -12.2062 18.0195 7.7043
rtibia 25.8054
rfoot -17.7972 12.709
rtoes -21.7021
lfemur -1.78504 6.30538 0.0805208
ltibia 53.0839
lfoot -38.3711 11.7169
ltoes -26.6032
